<svg xmlns="http://www.w3.org/2000/svg" width="38" height="26"><path d="M23.67 19.13h13.514c.45 0 .816.397.816.886v5.38c0 .333-.25.604-.557.604-.307 0-.556-.27-.556-.604v-1.963H30.91c-.307 0-.556-.27-.556-.604 0-.334.249-.604.556-.604h5.977v-1.886H23.67v1.886h4.974c.307 0 .557.27.557.604 0 .334-.25.604-.557.604H23.67v1.107c0 .609-.458 1.104-1.02 1.104H11.835C5.309 25.644 0 19.892 0 12.822 0 5.752 5.31 0 11.835 0c5.213 0 9.649 3.67 11.223 8.751h2.012c.485 0 .879.385.98.957l.762 4.297c.065.362-.001.697-.187.942a.936.936 0 01-.767.365H23.67zm2.026-5.027l-.735-4.143h-1.589c.195.92.298 1.879.298 2.862v1.281zm-24.568-.676c.281 5.924 4.68 10.689 10.15 10.993v-2.017c0-.588.442-1.067.984-1.067h10.295v-8.514c0-6.201-4.511-11.283-10.165-11.598v2.27c.001.177.003.42-.187.623-.186.2-.408.195-.53.193h-.005a1.796 1.796 0 00-.128 0c-1.608.063-3.137.649-4.424 1.693a.526.526 0 01-.779-.122.64.64 0 01.113-.846C7.86 3.891 9.525 3.23 11.278 3.114v-1.89c-5.47.305-9.869 5.07-10.15 10.994h1.744c.1-1.761.637-3.452 1.56-4.903a.53.53 0 01.774-.154c.253.19.317.566.142.84a8.957 8.957 0 00-1.374 4.506 2.32 2.32 0 000 .142c.003.13.008.372-.176.575-.17.188-.376.203-.526.203h-.116zm11.264 11.009h10.165v-1.891H12.392z"/><path d="M11.874 19.93c-3.492 0-6.334-2.916-6.334-6.501 0-3.584 2.842-6.499 6.334-6.499 3.492 0 6.333 2.915 6.333 6.499v5.461c0 .574-.453 1.04-1.01 1.04zm5.207-6.501c0-2.945-2.336-5.342-5.207-5.342-2.872 0-5.208 2.397-5.208 5.342 0 2.946 2.336 5.343 5.208 5.343h5.207z"/><path d="M9.853 15.603c-.63 0-1.143-.488-1.143-1.09v-2.156c0-.6.513-1.087 1.143-1.087H13.9c.63 0 1.143.488 1.143 1.087v2.157c0 .6-.513 1.09-1.143 1.09zm3.919-3.122h-3.79v1.912h3.79z"/></svg>