<svg xmlns="http://www.w3.org/2000/svg" width="42" height="37" viewBox="0 0 42 37"><g><g><g><path d="M21.163 30c.768 0 1.46.485 1.723 1.206a1.835 1.835 0 0 1-1.723 2.46 1.84 1.84 0 0 1-1.722-1.206A1.835 1.835 0 0 1 21.163 30zm0 2.445a.612.612 0 1 0 0 0z"/></g><g><path d="M41.963 25.47c.032.097.02.203.03.304v.004l-.002.008-.01.047c-.001.009-.006.02-.008.03l-.008.027-.014.034-.001.003-.008.018-.023.044-.004.008-.03.046-.003.004-.03.04-.007.007-.036.037-.005.006-.037.032-.01.008-.03.021c-.007.005-.013.01-.02.013l-.036.02-.018.01a.502.502 0 0 1-.027.012l-.019.008-.012.005c-5.146 1.887-10.51 3.263-15.438 5.662-.642.312-.068 1.504-.481 2.086-.76 1.07-1.788 1.963-2.893 2.673-2.222 1.428-6.126-1.894-6.571-3.09-.679-1.827 1.908-3.77 1.448-5.663-.942-3.871-1.785-7.887-2.936-11.763l3.986 11.047a5.138 5.138 0 0 1 1.156-.425l-8.78-24.327a1.843 1.843 0 0 0-2.365-1.113h-.002L1.404 4.015l.42 1.167 7.317-2.662h.002l.01-.004.009-.002.008-.003.033-.01.03-.006.006-.001.009-.002.015-.003a.597.597 0 0 1 .05-.005h.01c.02-.002.039-.002.058 0h.002a.614.614 0 0 1 .278.083l.004.002a.62.62 0 0 1 .043.029l.006.003a.57.57 0 0 1 .037.03l.004.004.006.004.029.029.002.001.005.005.006.007c.01.01.017.02.025.03l.002.001.005.007a.412.412 0 0 1 .024.033l.004.007.006.007a.222.222 0 0 1 .02.035l.004.008.005.008.008.016a.34.34 0 0 1 .008.019l.004.01.005.01a.32.32 0 0 1 .007.019l2.565 7.107c-.955-2.157-2.097-4.21-3.511-6.101C7.429 1.818 4.106 5.67 1.668 6.557l-.02.006-.034.011-.033.008-.02.004-.041.005a.358.358 0 0 1-.063.004c-.031-.001-.063-.005-.094-.007l-.02-.005c-.023-.006-.047-.01-.07-.017l-.02-.007-.066-.027-.018-.01-.062-.037-.011-.01-.01-.007-.051-.042-.02-.022-.006-.006-.038-.042-.02-.031-.008-.011C.935 6.3.926 6.289.92 6.276L.9 6.236c-.008-.017-.016-.03-.023-.05L.037 3.855C.033 3.845.03 3.835.028 3.826l-.01-.033-.006-.028-.006-.033-.003-.028c0-.012-.002-.021-.003-.033v-.028-.033l.003-.028.003-.032.006-.027.006-.032.008-.026c.004-.012.003-.013.01-.03.001-.007.006-.018.009-.025l.013-.031.011-.022.016-.03.013-.02.02-.03.013-.017.024-.03.015-.015.027-.028.015-.013c.01-.01.02-.018.031-.026l.015-.011.035-.024.01-.005.01-.006.035-.019.015-.006.043-.019L8.3.188c1.315.617 3.31.546 3.943 1.853 3.804 7.851 5.55 16.556 8.885 24.618.179.433 1.491.681 1.39.223-.75-3.361-2.339-6.478-3.508-9.718-1.216-3.368-2.486-6.718-3.647-10.105a.66.66 0 0 1 .02-.475.661.661 0 0 1 .348-.32c1.775-.712 3.59-1.318 5.386-1.978.004 0 .006-.002.01-.003l.005-.002 3.073-1.128.005-.002h.003c1.797-.66 3.59-1.332 5.393-1.98.067-.025.139-.03.21-.038.031-.003.069-.01.095.008 1.173.827 1.247 1.659 1.605 3.51.056.286-.2.555-.367.795-.041.058-.146.068-.211.038-.214-.1-.472-.198-.578-.409-.406-.798-.032-2.36-.912-2.526-1.48-.278-3.288.39-4.24 1.556-.565.694.61 1.684.912 2.526l.019.06.002.014.01.048v.002c-.017.117.01.25-.051.351a.775.775 0 0 1-.347.32c-1.008.427-2.052.766-3.084 1.132-.305.108-.607-.014-.788-.37-.405-.799-.032-2.361-.912-2.527-1.48-.278-4.095.058-4.24 1.556-.304 3.154.862 6.831 3.227 8.94 1.277 1.138 3.211-1.18 4.817-1.769 2.634-.966 6.001-.836 7.902-2.9.98-1.064-1.154-2.67-1.474-4.08-.064-.286.202-.556.368-.796.041-.058.146-.067.21-.037.214.1.483.193.579.408.673 1.51 1.122 3.109 1.683 4.663 1.427 3.954 2.21 8.202 4.28 11.86.351.621 1.329-.53 2.011-.738.13-.04.273-.003.41-.004h.002l.004.002.01.004.017.007.009.004.019.008.003.001c.106.116.253.205.315.348.327.76.582 1.548.842 2.332zM22.125 5.238l.702 1.943 1.927-.707-.701-1.943zm6.276 11.341l-.701-1.943-1.927.707.7 1.943zm-4.274 11.134c.277.212.532.453.763.719l12.275-4.502-4.07-11.274-4.24 1.556.913 2.525a.621.621 0 0 1-.368.795l-3.083 1.132a.61.61 0 0 1-.789-.37l-.912-2.526-4.239 1.556zM12.495 9.997c.88 1.985 1.6 4.06 2.229 6.174zm12.196 20.488a3.91 3.91 0 0 0-3.662-2.587c-.453 0-.902.08-1.332.238-2.02.741-3.064 3-2.329 5.036a3.91 3.91 0 0 0 3.662 2.587 3.883 3.883 0 0 0 3.53-2.27c.44-.951.487-2.018.13-3.005zm1.156-.425c.07.197.128.396.175.596l14.574-5.344-.421-1.166-14.574 5.344c.093.184.175.374.246.57z"/></g></g></g></svg>