<svg xmlns="http://www.w3.org/2000/svg" width="41" height="42" viewBox="0 0 41 42"><g><g><g><path d="M38.543 35.013A2.462 2.462 0 0 1 41 37.474v2.065A2.462 2.462 0 0 1 38.543 42H22.438a.602.602 0 0 1 0-1.205h12.077v-1.686H7.977v1.687l11.479-.001a.602.602 0 0 1 0 1.205l-12.221-.011c-.543 0-.875-.039-1.639-.381 0 0-3.395-1.52-5.05-2.263a.92.92 0 0 1-.546-.84c0-.368.21-.69.548-.84l5.048-2.26c.817-.366 1.148-.412 1.762-.404l31.185.012zM1.618 38.506l1.289.577.578.26V37.67zm3.068 1.375c.439.196 1.91.843 2.09.884v-4.517c-.18.041-2.09.884-2.09.884zm29.83-1.977V36.22H8.13l-.154-.001v1.686zm4.027 2.89c.692 0 1.256-.562 1.256-1.255v-2.065c0-.692-.564-1.256-1.256-1.256h-2.827v4.577z"/></g><g><path d="M1.063 32A1.058 1.058 0 0 1 0 30.949V5.677c0-.58.477-1.051 1.063-1.051h2.646V.992c-.003-.413.224-.777.578-.924.355-.147.75-.053 1.06.252l4.367 4.306h23.98V3.159c0-.57.471-1.033 1.05-1.033h2.725C39.416 2.126 41 3.689 41 5.611v22.904c0 1.92-1.584 3.483-3.531 3.483H22.78a.615.615 0 0 1-.618-.611c0-.338.276-.611.618-.611h14.689c1.265 0 2.294-1.014 2.294-2.26 0-1.247-1.029-2.262-2.294-2.262h-2.726a1.043 1.043 0 0 1-1.048-1.035V5.848H10.953l20.093 19.81c.308.304.405.694.259 1.042-.147.35-.515.576-.939.576H4.727a1.013 1.013 0 0 1-1.018-1.005V5.848H1.237v24.93l18.704-.002c.342 0 .618.273.619.61a.615.615 0 0 1-.619.612L1.063 32zm33.868-6.968h2.538c.875 0 1.677.316 2.294.838V5.61c0-1.247-1.029-2.262-2.294-2.262H34.93zm-5.234 1.023L4.945 1.65v24.405h2.653v-.858c0-.338.277-.611.618-.611.342 0 .618.273.618.61v.858h2.655V24.39c0-.337.277-.61.618-.61.342 0 .619.273.619.61v1.665h2.652v-.858c0-.337.277-.61.618-.61.342 0 .619.273.619.61v.858h2.655V24.39c0-.337.276-.61.618-.61.341 0 .618.273.618.61v1.665h2.653v-.858c0-.337.277-.61.618-.61.342 0 .618.273.618.61v.858z"/></g><g><path d="M16.686 22h-6.199c-.442 0-.727-.293-.727-.746v-6.348c0-.24 0-.686.403-.856.396-.168.682.126.89.341l6.137 6.283c.209.214.495.507.331.913-.167.413-.601.413-.835.413zm-.907-1.148l-4.9-5.017v5.017z"/></g></g></g></svg>